<svg xmlns="http://www.w3.org/2000/svg" viewBox="0 0 1600 900" preserveAspectRatio="xMidYMid slice">
  <defs>
    <linearGradient id="g1bg" x1="0" y1="0" x2="0" y2="1">
      <stop offset="0%" stop-color="#e74c3c"/>
      <stop offset="60%" stop-color="#c0392b"/>
      <stop offset="100%" stop-color="#7b241c"/>
    </linearGradient>
  </defs>
  <rect width="1600" height="900" fill="url(#g1bg)"/>
  <circle cx="1280" cy="220" r="120" fill="#f9d342" opacity="0.45"/>
  <circle cx="1280" cy="220" r="80" fill="#f9d342" opacity="0.55"/>
  <g fill="#3d1414" opacity="0.7">
    <rect x="0" y="420" width="180" height="200"/>
    <rect x="180" y="380" width="140" height="240"/>
    <rect x="320" y="440" width="160" height="180"/>
    <rect x="480" y="400" width="120" height="220"/>
    <rect x="600" y="360" width="160" height="260"/>
    <rect x="760" y="420" width="140" height="200"/>
    <rect x="900" y="390" width="180" height="230"/>
    <rect x="1080" y="430" width="140" height="190"/>
    <rect x="1220" y="370" width="180" height="250"/>
    <rect x="1400" y="410" width="200" height="210"/>
  </g>
  <g fill="#fff" opacity="0.92">
    <rect x="320" y="380" width="180" height="80" rx="4"/>
    <rect x="700" y="350" width="240" height="80" rx="4"/>
    <rect x="1100" y="370" width="180" height="80" rx="4"/>
  </g>
  <g stroke="#3d1414" stroke-width="6" opacity="0.85">
    <line x1="350" y1="460" x2="350" y2="640"/>
    <line x1="470" y1="460" x2="470" y2="640"/>
    <line x1="780" y1="430" x2="780" y2="640"/>
    <line x1="900" y1="430" x2="900" y2="640"/>
    <line x1="1130" y1="450" x2="1130" y2="640"/>
    <line x1="1250" y1="450" x2="1250" y2="640"/>
  </g>
  <g fill="#1c0808">
    <ellipse cx="80" cy="610" rx="38" ry="44"/><rect x="42" y="650" width="76" height="180"/>
    <ellipse cx="180" cy="600" rx="38" ry="44"/><rect x="142" y="640" width="76" height="190"/>
    <ellipse cx="280" cy="615" rx="38" ry="44"/><rect x="242" y="655" width="76" height="175"/>
    <ellipse cx="380" cy="600" rx="38" ry="44"/><rect x="342" y="640" width="76" height="190"/>
    <ellipse cx="480" cy="615" rx="38" ry="44"/><rect x="442" y="655" width="76" height="175"/>
    <ellipse cx="580" cy="595" rx="38" ry="44"/><rect x="542" y="635" width="76" height="195"/>
    <ellipse cx="680" cy="610" rx="38" ry="44"/><rect x="642" y="650" width="76" height="180"/>
    <ellipse cx="780" cy="600" rx="38" ry="44"/><rect x="742" y="640" width="76" height="190"/>
    <ellipse cx="880" cy="615" rx="38" ry="44"/><rect x="842" y="655" width="76" height="175"/>
    <ellipse cx="980" cy="600" rx="38" ry="44"/><rect x="942" y="640" width="76" height="190"/>
    <ellipse cx="1080" cy="615" rx="38" ry="44"/><rect x="1042" y="655" width="76" height="175"/>
    <ellipse cx="1180" cy="595" rx="38" ry="44"/><rect x="1142" y="635" width="76" height="195"/>
    <ellipse cx="1280" cy="610" rx="38" ry="44"/><rect x="1242" y="650" width="76" height="180"/>
    <ellipse cx="1380" cy="600" rx="38" ry="44"/><rect x="1342" y="640" width="76" height="190"/>
    <ellipse cx="1480" cy="615" rx="38" ry="44"/><rect x="1442" y="655" width="76" height="175"/>
    <ellipse cx="1580" cy="600" rx="38" ry="44"/><rect x="1542" y="640" width="76" height="190"/>
  </g>
  <g fill="#1c0808">
    <rect x="780" y="220" width="40" height="160" rx="8"/>
    <rect x="760" y="180" width="80" height="60" rx="14"/>
    <rect x="752" y="200" width="20" height="40"/>
    <rect x="828" y="200" width="20" height="40"/>
  </g>
</svg>
