<svg xmlns="http://www.w3.org/2000/svg" viewBox="0 0 1600 900" preserveAspectRatio="xMidYMid slice">
  <defs>
    <linearGradient id="g2bg" x1="0" y1="0" x2="0" y2="1">
      <stop offset="0%" stop-color="#1abc9c"/>
      <stop offset="100%" stop-color="#16a085"/>
    </linearGradient>
  </defs>
  <rect width="1600" height="900" fill="url(#g2bg)"/>
  <g fill="#0e6655" opacity="0.55">
    <rect x="0" y="540" width="1600" height="120"/>
    <rect x="0" y="640" width="1600" height="260"/>
  </g>
  <g fill="#fff" opacity="0.18">
    <circle cx="220" cy="180" r="90"/>
    <circle cx="320" cy="220" r="70"/>
    <circle cx="1380" cy="160" r="100"/>
    <circle cx="1480" cy="220" r="80"/>
  </g>
  <g fill="#fff" opacity="0.95">
    <rect x="200" y="220" width="1200" height="320" rx="14"/>
  </g>
  <g fill="#16a085" opacity="0.9">
    <rect x="220" y="240" width="1160" height="6"/>
    <rect x="220" y="520" width="1160" height="6"/>
  </g>
  <g fill="#0e6655" font-family="system-ui, sans-serif" font-weight="800" text-anchor="middle">
    <text x="800" y="370" font-size="110" letter-spacing="2">RAISE YOUR VOICE</text>
    <text x="800" y="450" font-size="44" font-weight="600" opacity="0.7">together · loudly · together</text>
  </g>
  <g stroke="#0e6655" stroke-width="14" opacity="0.95">
    <line x1="240" y1="540" x2="240" y2="780"/>
    <line x1="1360" y1="540" x2="1360" y2="780"/>
  </g>
  <g fill="#0e6655" opacity="0.95">
    <ellipse cx="400" cy="640" rx="34" ry="40"/><rect x="366" y="680" width="68" height="160" rx="6"/>
    <ellipse cx="520" cy="630" rx="34" ry="40"/><rect x="486" y="670" width="68" height="170" rx="6"/>
    <ellipse cx="640" cy="640" rx="34" ry="40"/><rect x="606" y="680" width="68" height="160" rx="6"/>
    <ellipse cx="760" cy="625" rx="38" ry="44"/><rect x="722" y="665" width="76" height="180" rx="6"/>
    <ellipse cx="880" cy="635" rx="34" ry="40"/><rect x="846" y="675" width="68" height="170" rx="6"/>
    <ellipse cx="1000" cy="625" rx="38" ry="44"/><rect x="962" y="665" width="76" height="180" rx="6"/>
    <ellipse cx="1120" cy="640" rx="34" ry="40"/><rect x="1086" y="680" width="68" height="160" rx="6"/>
    <ellipse cx="1240" cy="630" rx="34" ry="40"/><rect x="1206" y="670" width="68" height="170" rx="6"/>
  </g>
</svg>
