<svg xmlns="http://www.w3.org/2000/svg" viewBox="0 0 1600 900" preserveAspectRatio="xMidYMid slice">
  <defs>
    <linearGradient id="g3bg" x1="0" y1="0" x2="0" y2="1">
      <stop offset="0%" stop-color="#1f3a5f"/>
      <stop offset="100%" stop-color="#3498db"/>
    </linearGradient>
  </defs>
  <rect width="1600" height="900" fill="url(#g3bg)"/>
  <g transform="translate(440, 130) rotate(-3 480 320)">
    <rect x="0" y="0" width="960" height="640" rx="6" fill="#f5e9c8"/>
    <rect x="0" y="0" width="960" height="640" rx="6" fill="none" stroke="#1f3a5f" stroke-width="3" opacity="0.2"/>
    <g fill="#1f3a5f" opacity="0.55" font-family="serif">
      <text x="60" y="80" font-size="40" font-weight="700">Dear Member of Parliament,</text>
    </g>
    <g stroke="#3498db" stroke-width="6" stroke-linecap="round" opacity="0.7">
      <line x1="60" y1="160" x2="900" y2="160"/>
      <line x1="60" y1="220" x2="900" y2="220"/>
      <line x1="60" y1="280" x2="860" y2="280"/>
      <line x1="60" y1="340" x2="900" y2="340"/>
      <line x1="60" y1="400" x2="820" y2="400"/>
      <line x1="60" y1="460" x2="900" y2="460"/>
      <line x1="60" y1="520" x2="780" y2="520"/>
    </g>
    <g fill="#1f3a5f" opacity="0.7" font-family="serif">
      <text x="60" y="600" font-size="34" font-style="italic">— Yours sincerely</text>
    </g>
  </g>
  <g transform="translate(1040, 540) rotate(28)">
    <rect x="0" y="-12" width="380" height="24" rx="6" fill="#3d2817"/>
    <rect x="-10" y="-16" width="30" height="32" rx="6" fill="#f1c40f"/>
    <polygon points="380,-12 420,0 380,12" fill="#1c0808"/>
  </g>
  <g fill="#fff" opacity="0.6">
    <circle cx="200" cy="220" r="90"/>
    <circle cx="280" cy="180" r="60"/>
    <circle cx="1380" cy="780" r="80"/>
    <circle cx="1460" cy="740" r="50"/>
  </g>
</svg>
