<svg xmlns="http://www.w3.org/2000/svg" viewBox="0 0 1600 900" preserveAspectRatio="xMidYMid slice">
  <defs>
    <linearGradient id="g6bg" x1="0" y1="0" x2="0" y2="1">
      <stop offset="0%" stop-color="#e67e22"/>
      <stop offset="100%" stop-color="#f1c40f"/>
    </linearGradient>
  </defs>
  <rect width="1600" height="900" fill="url(#g6bg)"/>
  <g fill="#7e2f0c" opacity="0.35">
    <rect x="0" y="700" width="1600" height="200"/>
  </g>
  <ellipse cx="800" cy="780" rx="640" ry="60" fill="#3d1908" opacity="0.6"/>
  <ellipse cx="800" cy="690" rx="540" ry="36" fill="#5d2a13" opacity="0.85"/>
  <g fill="#7e2f0c" opacity="0.7">
    <rect x="260" y="700" width="40" height="20"/>
    <rect x="1300" y="700" width="40" height="20"/>
    <rect x="380" y="700" width="40" height="20"/>
    <rect x="1180" y="700" width="40" height="20"/>
  </g>
  <g fill="#1a0c08" opacity="0.95">
    <ellipse cx="380" cy="500" rx="42" ry="48"/>
    <rect x="334" y="544" width="92" height="180" rx="10"/>
    <ellipse cx="540" cy="490" rx="44" ry="50"/>
    <rect x="492" y="534" width="96" height="190" rx="10"/>
    <ellipse cx="700" cy="480" rx="48" ry="54"/>
    <rect x="650" y="528" width="100" height="200" rx="10"/>
    <ellipse cx="900" cy="475" rx="50" ry="56"/>
    <rect x="848" y="525" width="104" height="210" rx="10"/>
    <ellipse cx="1080" cy="490" rx="44" ry="50"/>
    <rect x="1032" y="534" width="96" height="190" rx="10"/>
    <ellipse cx="1240" cy="500" rx="42" ry="48"/>
    <rect x="1194" y="544" width="92" height="180" rx="10"/>
  </g>
  <g fill="#fff" opacity="0.92">
    <rect x="340" y="640" width="80" height="60" rx="6"/>
    <rect x="498" y="630" width="84" height="64" rx="6"/>
    <rect x="656" y="620" width="88" height="68" rx="6"/>
    <rect x="854" y="618" width="92" height="68" rx="6"/>
    <rect x="1038" y="630" width="84" height="64" rx="6"/>
    <rect x="1200" y="640" width="80" height="60" rx="6"/>
  </g>
  <g stroke="#1a0c08" stroke-width="2" opacity="0.6">
    <line x1="350" y1="660" x2="410" y2="660"/>
    <line x1="350" y1="675" x2="395" y2="675"/>
    <line x1="510" y1="650" x2="570" y2="650"/>
    <line x1="510" y1="665" x2="555" y2="665"/>
    <line x1="668" y1="640" x2="730" y2="640"/>
    <line x1="668" y1="655" x2="715" y2="655"/>
    <line x1="668" y1="670" x2="730" y2="670"/>
    <line x1="866" y1="638" x2="930" y2="638"/>
    <line x1="866" y1="653" x2="915" y2="653"/>
    <line x1="866" y1="668" x2="930" y2="668"/>
    <line x1="1050" y1="650" x2="1110" y2="650"/>
    <line x1="1050" y1="665" x2="1095" y2="665"/>
    <line x1="1212" y1="660" x2="1268" y2="660"/>
    <line x1="1212" y1="675" x2="1255" y2="675"/>
  </g>
</svg>
