<svg xmlns="http://www.w3.org/2000/svg" viewBox="0 0 1600 900" preserveAspectRatio="xMidYMid slice">
  <defs>
    <linearGradient id="g7" x1="0" y1="0" x2="0" y2="1">
      <stop offset="0%" stop-color="#1a1a2e"/>
      <stop offset="100%" stop-color="#4b3f72"/>
    </linearGradient>
  </defs>
  <rect width="1600" height="900" fill="url(#g7)"/>
  <g opacity="0.85" fill="#f1c40f">
    <ellipse cx="380" cy="540" rx="14" ry="22"/>
    <ellipse cx="500" cy="500" rx="14" ry="22"/>
    <ellipse cx="620" cy="540" rx="14" ry="22"/>
    <ellipse cx="740" cy="490" rx="14" ry="22"/>
    <ellipse cx="860" cy="540" rx="14" ry="22"/>
    <ellipse cx="980" cy="500" rx="14" ry="22"/>
    <ellipse cx="1100" cy="540" rx="14" ry="22"/>
    <ellipse cx="1220" cy="490" rx="14" ry="22"/>
  </g>
  <g opacity="0.55" fill="#f39c12">
    <circle cx="380" cy="490" r="6"/>
    <circle cx="500" cy="450" r="6"/>
    <circle cx="620" cy="490" r="6"/>
    <circle cx="740" cy="440" r="6"/>
    <circle cx="860" cy="490" r="6"/>
    <circle cx="980" cy="450" r="6"/>
    <circle cx="1100" cy="490" r="6"/>
    <circle cx="1220" cy="440" r="6"/>
  </g>
  <g opacity="0.4" fill="#fff">
    <circle cx="240" cy="200" r="3"/>
    <circle cx="420" cy="160" r="2"/>
    <circle cx="640" cy="220" r="3"/>
    <circle cx="860" cy="180" r="2"/>
    <circle cx="1080" cy="210" r="3"/>
    <circle cx="1280" cy="170" r="2"/>
    <circle cx="1440" cy="220" r="3"/>
  </g>
  <text x="800" y="820" font-family="system-ui, sans-serif" font-size="32" font-weight="600"
        fill="#fff" text-anchor="middle" opacity="0.85">Vigil · placeholder</text>
</svg>
